<svg width="5664" height="1382" viewBox="0 0 5664 1382" fill="none" xmlns="http://www.w3.org/2000/svg">
<path fill-rule="evenodd" clip-rule="evenodd" d="M1380.66 0H0V1382H1380.66V0ZM307.944 480.1V308.251H1067.31V1068.35H895.626V480.1H307.944ZM307.944 612.292H725.594V764.312H307.944V612.292ZM307.944 897.329H535.753V1068.35H307.944V897.329Z" fill="black"/>
<path d="M2052 994V203H2195.68V873.881H2545V994H2052Z" fill="black"/>
<path d="M2927.21 1005C2867.51 1005 2815.95 992.654 2772.52 967.954C2729.37 943.003 2696.15 907.759 2672.89 862.224C2649.63 816.437 2638 762.541 2638 700.544C2638 639.573 2649.63 586.067 2672.89 540.019C2696.41 493.714 2729.24 457.699 2771.36 431.974C2813.49 405.991 2862.98 393 2919.85 393C2956.55 393 2991.18 398.917 3023.74 410.75C3056.57 422.327 3085.52 440.334 3110.59 464.773C3135.92 489.212 3155.82 520.339 3170.29 558.155C3184.77 595.713 3192 640.478 3192 692.442V735.27H2703.91V641.117H3057.48C3057.22 614.363 3051.4 590.569 3040.03 569.731C3028.66 548.637 3012.76 532.044 2992.34 519.953C2972.18 507.863 2948.66 501.817 2921.78 501.817C2893.1 501.817 2867.9 508.763 2846.18 522.654C2824.47 536.289 2807.54 554.296 2795.4 576.677C2783.51 598.801 2777.44 623.111 2777.18 649.607V731.801C2777.18 766.269 2783.51 795.852 2796.17 820.552C2808.84 844.986 2826.54 863.768 2849.29 876.89C2872.03 889.753 2898.65 896.181 2929.15 896.181C2949.57 896.181 2968.05 893.352 2984.59 887.692C3001.13 881.774 3015.47 873.155 3027.62 861.836C3039.77 850.517 3048.94 836.497 3055.15 819.777L3186.19 834.443C3177.91 868.911 3162.15 899.011 3138.89 924.738C3115.88 950.206 3086.43 970.015 3050.49 984.164C3014.57 998.055 2973.47 1005 2927.21 1005Z" fill="black"/>
<path d="M3531.17 1004C3484.43 1004 3442.61 992.03 3405.68 968.097C3368.75 944.163 3339.58 909.424 3318.14 863.871C3296.71 818.318 3286 762.993 3286 697.882C3286 632.003 3296.84 576.413 3318.53 531.12C3340.48 485.569 3370.05 451.213 3407.23 428.051C3444.41 404.632 3485.85 392.923 3531.56 392.923C3566.42 392.923 3595.08 398.842 3617.54 410.68C3640.01 422.261 3657.83 436.287 3671 452.757C3684.17 468.97 3694.36 484.282 3701.59 498.694H3707.4V203H3848V993.575H3710.12V900.155H3701.59C3694.36 914.568 3683.91 929.88 3670.22 946.096C3656.54 962.047 3638.46 975.691 3615.99 987.015C3593.53 998.338 3565.26 1004 3531.17 1004ZM3570.29 889.349C3599.98 889.349 3625.29 881.373 3646.21 865.415C3667.12 849.199 3683 826.681 3693.85 797.862C3704.69 769.036 3710.12 735.453 3710.12 697.107C3710.12 658.767 3704.69 625.436 3693.85 597.129C3683.26 568.821 3667.51 546.817 3646.6 531.12C3625.93 515.421 3600.5 507.572 3570.29 507.572C3539.05 507.572 3512.97 515.678 3492.05 531.891C3471.14 548.104 3455.39 570.494 3444.8 599.06C3434.21 627.627 3428.92 660.312 3428.92 697.107C3428.92 734.167 3434.21 767.239 3444.8 796.317C3455.65 825.143 3471.52 847.913 3492.44 864.647C3513.61 881.115 3539.56 889.349 3570.29 889.349Z" fill="black"/>
<path d="M4255.93 1226C4205.62 1226 4162.4 1219.31 4126.27 1205.93C4090.14 1192.55 4061.12 1174.67 4039.18 1152.27C4017.25 1129.88 4002.02 1105.31 3993.51 1078.55L4119.69 1048.05C4125.37 1058.6 4133.63 1069.41 4144.46 1080.47C4155.3 1091.8 4169.88 1101.19 4188.2 1108.65C4206.78 1116.38 4230.13 1120.23 4258.26 1120.23C4297.99 1120.23 4330.89 1110.71 4356.95 1091.67C4383.02 1072.63 4396.05 1041.88 4396.05 999.416V887.09H4389.08C4381.85 901.496 4371.28 916.296 4357.34 931.478C4343.67 946.659 4325.48 959.397 4302.77 969.693C4280.32 979.988 4252.07 985.133 4218 985.133C4172.33 985.133 4130.92 974.456 4093.76 953.096C4056.86 931.478 4027.44 899.312 4005.51 856.591C3983.84 813.62 3973 759.835 3973 695.244C3973 630.137 3983.84 575.195 4005.51 530.418C4027.44 485.384 4056.99 451.287 4094.15 428.127C4131.3 404.709 4172.72 393 4218.39 393C4253.22 393 4281.87 398.919 4304.31 410.756C4327.03 422.337 4345.08 436.362 4358.5 452.831C4371.92 469.044 4382.11 484.355 4389.08 498.766H4396.82V400.721H4535V1003.27C4535 1052.94 4522.87 1094.25 4498.62 1127.18C4474.36 1160.38 4441.21 1185.08 4399.15 1201.3C4357.08 1217.77 4309.35 1226 4255.93 1226ZM4257.09 875.509C4286.77 875.509 4312.06 868.302 4332.96 853.89C4353.86 839.478 4369.73 818.764 4380.56 791.742C4391.41 764.721 4396.82 732.296 4396.82 694.469C4396.82 657.158 4391.41 624.475 4380.56 596.425C4369.99 568.376 4354.25 546.63 4333.34 531.191C4312.7 515.493 4287.29 507.644 4257.09 507.644C4225.88 507.644 4199.81 515.75 4178.91 531.962C4158.01 548.174 4142.27 570.434 4131.69 598.741C4121.11 626.789 4115.82 658.703 4115.82 694.469C4115.82 730.758 4121.11 762.536 4131.69 789.817C4142.53 816.831 4158.4 837.94 4179.3 853.121C4200.46 868.044 4226.39 875.509 4257.09 875.509Z" fill="black"/>
<path d="M4941.69 1005C4882.1 1005 4830.63 992.654 4787.28 967.954C4744.2 943.003 4711.05 907.759 4687.83 862.224C4664.61 816.437 4653 762.541 4653 700.544C4653 639.573 4664.61 586.067 4687.83 540.019C4711.3 493.714 4744.07 457.699 4786.12 431.974C4828.17 405.991 4877.58 393 4934.34 393C4970.97 393 5005.54 398.917 5038.05 410.75C5070.82 422.327 5099.71 440.334 5124.74 464.773C5150.02 489.212 5169.88 520.339 5184.33 558.155C5198.78 595.713 5206 640.478 5206 692.442V735.27H4718.79V641.117H5071.72C5071.46 614.363 5065.65 590.569 5054.3 569.731C5042.95 548.637 5027.08 532.044 5006.7 519.953C4986.58 507.863 4963.1 501.817 4936.28 501.817C4907.64 501.817 4882.48 508.763 4860.81 522.654C4839.14 536.289 4822.24 554.296 4810.12 576.677C4798.25 598.801 4792.19 623.111 4791.93 649.607V731.801C4791.93 766.269 4798.24 795.852 4810.89 820.552C4823.53 844.986 4841.2 863.768 4863.9 876.89C4886.61 889.753 4913.18 896.181 4943.63 896.181C4964 896.181 4982.45 893.352 4998.97 887.692C5015.47 881.774 5029.79 873.155 5041.92 861.836C5054.04 850.517 5063.21 836.497 5069.4 819.777L5200.2 834.443C5191.94 868.911 5176.21 899.011 5152.99 924.738C5130.02 950.206 5100.62 970.015 5064.75 984.164C5028.89 998.055 4987.87 1005 4941.69 1005Z" fill="black"/>
<path d="M5325 994V400.501H5460.83V499.417H5467.01C5477.88 465.157 5496.43 438.753 5522.71 420.207C5549.34 401.402 5579.64 392 5613.67 392C5621.41 392 5630.04 392.386 5639.61 393.159C5649.4 393.674 5657.55 394.576 5664 395.864V524.532C5658.02 522.472 5648.65 520.669 5635.74 519.123C5623.11 517.32 5610.81 516.419 5598.99 516.419C5573.45 516.419 5550.5 521.957 5530.12 533.033C5509.94 543.852 5494.12 558.922 5482.5 578.242C5470.89 597.561 5465.11 619.841 5465.11 645.085V994H5325Z" fill="black"/>
</svg>
